<svg width="680" height="232" viewBox="0 0 680 232" fill="none" xmlns="http://www.w3.org/2000/svg">
<path d="M216.348 124.023C228.213 124.023 237.831 114.405 237.831 102.54C237.831 90.6749 228.213 81.0565 216.348 81.0565C204.483 81.0565 194.865 90.6749 194.865 102.54C194.865 114.405 204.483 124.023 216.348 124.023Z" fill="#F33910"/>
<path d="M316.498 94.6259H276.274C277.085 97.2938 277.764 99.9377 278.337 102.501H319.23C318.427 99.9738 317.524 97.338 316.498 94.6259Z" fill="#07337D"/>
<path d="M321.501 112.717H279.63L280.465 121.763H322.397L321.501 112.717Z" fill="#07337D"/>
<path d="M314.651 87.215C302.521 54.1739 277.651 20 227.668 20C145.115 20 24.9655 209.016 23 211.78H44.1527C44.1527 211.78 155.162 50.1908 227.405 50.1908C253.148 50.1908 266.339 66.088 273.101 87.215H314.651Z" fill="#07337D"/>
<path d="M280.798 128.546C280.929 133.524 280.918 133.069 280.918 133.069H324.353C324.353 133.069 324.192 133.554 323.764 128.546H280.798Z" fill="#07337D"/>
<path d="M176.774 145.098H198.158V154.347C201.235 150.488 204.33 147.744 207.444 146.113C210.595 144.482 214.385 143.666 218.812 143.666C223.576 143.666 227.347 144.561 230.123 146.351C232.899 148.141 235.169 150.807 236.933 154.347C240.534 150.21 243.817 147.405 246.781 145.934C249.745 144.422 253.403 143.666 257.755 143.666C264.17 143.666 269.179 145.695 272.78 149.752C276.382 153.77 278.183 160.075 278.183 168.667V208.465H255.222V172.366C255.222 169.502 254.697 167.374 253.646 165.982C252.108 163.794 250.195 162.7 247.906 162.7C245.205 162.7 243.029 163.734 241.378 165.803C239.728 167.871 238.902 171.193 238.902 175.767V208.465H215.942V173.56C215.942 170.775 215.792 168.886 215.491 167.891C215.004 166.3 214.16 165.027 212.959 164.073C211.758 163.078 210.352 162.581 208.738 162.581C206.112 162.581 203.955 163.635 202.267 165.743C200.578 167.851 199.734 171.312 199.734 176.125V208.465H176.774V145.098Z" fill="#07337D"/>
<path d="M312.736 165.624L290.845 163.178C291.67 159.12 292.852 155.938 294.39 153.631C295.966 151.284 298.217 149.255 301.143 147.545C303.244 146.312 306.133 145.357 309.81 144.681C313.486 144.004 317.463 143.666 321.74 143.666C328.606 143.666 334.121 144.084 338.285 144.919C342.45 145.715 345.92 147.405 348.696 149.991C350.647 151.781 352.186 154.327 353.311 157.628C354.437 160.89 354.999 164.013 354.999 166.996V194.98C354.999 197.964 355.168 200.31 355.506 202.021C355.881 203.692 356.669 205.84 357.869 208.465H336.372C335.509 206.834 334.946 205.601 334.684 204.766C334.421 203.89 334.159 202.538 333.896 200.708C330.895 203.771 327.912 205.959 324.948 207.272C320.896 209.022 316.188 209.897 310.823 209.897C303.694 209.897 298.273 208.147 294.559 204.646C290.882 201.146 289.044 196.83 289.044 191.698C289.044 186.885 290.376 182.927 293.04 179.825C295.703 176.722 300.618 174.415 307.784 172.903C316.375 171.073 321.947 169.801 324.498 169.085C327.049 168.329 329.75 167.354 332.602 166.161C332.602 163.178 332.02 161.089 330.857 159.896C329.694 158.702 327.649 158.106 324.723 158.106C320.971 158.106 318.157 158.742 316.282 160.015C314.818 161.01 313.637 162.879 312.736 165.624ZM332.602 178.393C329.45 179.586 326.167 180.64 322.753 181.555C318.101 182.868 315.156 184.161 313.918 185.433C312.642 186.746 312.005 188.238 312.005 189.908C312.005 191.818 312.624 193.389 313.862 194.622C315.137 195.816 316.994 196.412 319.433 196.412C321.984 196.412 324.348 195.756 326.524 194.443C328.737 193.13 330.294 191.539 331.195 189.67C332.133 187.76 332.602 185.294 332.602 182.271V178.393Z" fill="#07337D"/>
<path d="M368.956 145.098H390.397V155.48C392.46 150.986 394.58 147.903 396.756 146.232C398.97 144.522 401.69 143.666 404.916 143.666C408.293 143.666 411.988 144.78 416.002 147.008L408.912 164.311C406.21 163.118 404.072 162.521 402.496 162.521C399.495 162.521 397.169 163.834 395.518 166.459C393.154 170.159 391.973 177.08 391.973 187.223V208.465H368.956V145.098Z" fill="#07337D"/>
<path d="M418.816 190.923L441.552 188.655C442.49 191.519 443.803 193.568 445.491 194.801C447.179 196.034 449.43 196.651 452.244 196.651C455.321 196.651 457.703 195.955 459.391 194.563C460.704 193.528 461.361 192.235 461.361 190.684C461.361 188.934 460.498 187.581 458.772 186.627C457.534 185.951 454.251 185.115 448.924 184.121C440.97 182.649 435.436 181.296 432.322 180.063C429.246 178.79 426.639 176.662 424.5 173.679C422.399 170.696 421.349 167.295 421.349 163.476C421.349 159.299 422.493 155.699 424.781 152.676C427.07 149.653 430.222 147.405 434.236 145.934C438.25 144.422 443.634 143.666 450.387 143.666C457.515 143.666 462.768 144.243 466.144 145.397C469.558 146.55 472.391 148.34 474.642 150.767C476.93 153.193 478.825 156.475 480.326 160.612L458.603 162.879C458.041 160.851 457.103 159.359 455.79 158.404C453.989 157.131 451.813 156.495 449.262 156.495C446.673 156.495 444.778 156.992 443.578 157.986C442.415 158.941 441.833 160.115 441.833 161.507C441.833 163.058 442.583 164.232 444.084 165.027C445.585 165.823 448.849 166.539 453.876 167.175C461.492 168.09 467.157 169.363 470.871 170.994C474.586 172.625 477.418 174.952 479.369 177.975C481.358 180.998 482.352 184.32 482.352 187.939C482.352 191.599 481.301 195.159 479.2 198.62C477.137 202.081 473.854 204.845 469.352 206.914C464.887 208.942 458.791 209.957 451.062 209.957C440.145 209.957 432.36 208.306 427.708 205.004C423.093 201.703 420.129 197.009 418.816 190.923Z" fill="#07337D"/>
<path d="M490.512 176.961C490.512 167.295 493.588 159.339 499.741 153.094C505.894 146.809 514.204 143.666 524.671 143.666C536.639 143.666 545.681 147.346 551.796 154.705C556.711 160.632 559.168 167.931 559.168 176.603C559.168 186.348 556.111 194.344 549.995 200.589C543.918 206.794 535.495 209.897 524.728 209.897C515.123 209.897 507.357 207.311 501.429 202.14C494.151 195.736 490.512 187.343 490.512 176.961ZM513.472 176.901C513.472 182.55 514.542 186.726 516.68 189.431C518.856 192.136 521.576 193.489 524.84 193.489C528.142 193.489 530.843 192.156 532.944 189.491C535.082 186.826 536.152 182.55 536.152 176.662C536.152 171.173 535.082 167.096 532.944 164.431C530.805 161.726 528.16 160.373 525.009 160.373C521.67 160.373 518.912 161.746 516.736 164.49C514.56 167.195 513.472 171.332 513.472 176.901Z" fill="#07337D"/>
<path d="M595.691 145.098H606.609V162.879H595.691V208.465H572.731V162.879H564.177V145.098H572.731V142.234C572.731 139.649 572.993 136.805 573.519 133.702C574.044 130.599 575.019 128.073 576.445 126.124C577.908 124.135 579.934 122.544 582.523 121.351C585.149 120.118 588.976 119.501 594.003 119.501C598.018 119.501 603.851 119.998 611.505 120.993L608.973 135.671C606.234 135.194 604.02 134.955 602.332 134.955C600.269 134.955 598.787 135.333 597.886 136.089C596.986 136.805 596.348 137.958 595.973 139.549C595.785 140.424 595.691 142.274 595.691 145.098Z" fill="#07337D"/>
<path d="M642.738 120.993V145.098H655.344V162.82H642.738V185.314C642.738 188.019 642.982 189.809 643.47 190.684C644.22 192.037 645.533 192.713 647.409 192.713C649.097 192.713 651.461 192.196 654.5 191.161L656.188 207.928C650.523 209.241 645.233 209.897 640.318 209.897C634.616 209.897 630.414 209.121 627.712 207.57C625.011 206.019 623.004 203.672 621.691 200.529C620.415 197.347 619.778 192.216 619.778 185.135V162.82H611.336V145.098H619.778V133.463L642.738 120.993Z" fill="#07337D"/>
</svg>
